<svg width="76" height="73" viewBox="0 0 76 73" fill="none" xmlns="http://www.w3.org/2000/svg">
<path d="M38 72.6957C42.9902 72.6957 47.9316 71.7555 52.542 69.9289C57.1523 68.1022 61.3414 65.4249 64.8701 62.0497C68.3987 58.6745 71.1977 54.6675 73.1074 50.2576C75.0171 45.8476 76 41.1211 76 36.3479C76 31.5746 75.0171 26.8481 73.1074 22.4381C71.1977 18.0282 68.3987 14.0212 64.8701 10.646C61.3414 7.27083 57.1523 4.59347 52.542 2.76681C47.9316 0.940165 42.9902 -2.08646e-07 38 0L38 9.08696C41.7427 9.08696 45.4487 9.79209 48.9065 11.1621C52.3643 12.5321 55.5061 14.5401 58.1525 17.0715C60.799 19.6029 62.8983 22.6081 64.3306 25.9156C65.7628 29.223 66.5 32.7679 66.5 36.3479C66.5 39.9278 65.7628 43.4727 64.3306 46.7801C62.8983 50.0876 60.799 53.0928 58.1525 55.6242C55.5061 58.1556 52.3643 60.1636 48.9065 61.5336C45.4487 62.9036 41.7427 63.6087 38 63.6087L38 72.6957Z" fill="#0E306A"/>
<path d="M75.4997 42.2264C76.3068 37.5159 76.136 32.6996 74.9971 28.0523C73.8582 23.405 71.7735 19.0178 68.862 15.1411C65.9505 11.2645 62.2693 7.97434 58.0284 5.45852C53.7876 2.9427 49.0703 1.25049 44.1457 0.478515C39.2212 -0.293463 34.1859 -0.130095 29.3274 0.959294C24.4688 2.04868 19.8822 4.04276 15.8294 6.82766C11.7765 9.61257 8.3368 13.1338 5.70663 17.1902C3.07645 21.2467 1.30733 25.7589 0.500264 30.4693L9.8752 31.939C10.4805 28.4061 11.8073 25.022 13.78 21.9796C15.7526 18.9373 18.3324 16.2964 21.372 14.2077C24.4117 12.119 27.8516 10.6235 31.4955 9.80643C35.1394 8.98939 38.9159 8.86687 42.6093 9.44585C46.3027 10.0248 49.8407 11.294 53.0213 13.1809C56.2019 15.0677 58.9629 17.5353 61.1465 20.4428C63.3301 23.3503 64.8936 26.6407 65.7478 30.1262C66.602 33.6117 66.7301 37.2239 66.1248 40.7567L75.4997 42.2264Z" fill="#0E306A"/>
<path d="M0 28.9524L10.1333 28.9524L9.22353 67.5329C9.19793 68.6188 8.31029 69.4857 7.22409 69.4857H2C0.895429 69.4857 0 68.5903 0 67.4857V28.9524Z" fill="#0E306A"/>
<path d="M33.0435 49.5653H39.6522V72.6957H35.0435C33.939 72.6957 33.0435 71.8003 33.0435 70.6957V49.5653Z" fill="#0E306A"/>
<path d="M33.0434 24.1304C33.0434 23.5781 33.4911 23.1304 34.0434 23.1304H42.9006C43.4529 23.1304 43.9006 23.5781 43.9006 24.1304V46.2609H33.0434V24.1304Z" fill="#ED1B23"/>
<path d="M58.4783 36.0331C59.0305 36.0331 59.4783 36.4808 59.4783 37.0331V45.8903C59.4783 46.4426 59.0305 46.8903 58.4783 46.8903H34.1449V36.0331H58.4783Z" fill="#ED1B23"/>
<path d="M29.7391 36.0331V46.8903H17.5217C16.9695 46.8903 16.5217 46.4426 16.5217 45.8903V37.0331C16.5217 36.4809 16.9695 36.0331 17.5217 36.0331H29.7391Z" fill="#0E306A"/>
</svg>
