<svg width="152" height="100" viewBox="0 0 152 100" fill="none" xmlns="http://www.w3.org/2000/svg">
<path d="M74.744 60V51.6H75.86L77.528 56.724L79.196 51.6H80.312V60H79.196V55.008L78.08 58.428H76.976L75.86 55.008V60H74.744Z" fill="#EB1C24"/>
<path d="M84.744 60V51.6H89.208V52.704H85.86V54.792H88.092L87.84 55.908H85.86V58.884H89.208V60H84.744Z" fill="#EB1C24"/>
<path d="M95.0693 52.959V58.8516C95.8213 58.8288 96.4274 58.5667 96.8877 58.0654C97.3525 57.5641 97.585 56.917 97.585 56.124C97.585 55.2855 97.3571 54.5791 96.9014 54.0049C96.4456 53.4307 95.835 53.082 95.0693 52.959ZM93.9072 51.9062H94.8027C95.9512 51.9062 96.915 52.3073 97.6943 53.1094C98.4736 53.9069 98.8633 54.8776 98.8633 56.0215C98.8633 57.2201 98.5033 58.1725 97.7832 58.8789C97.0632 59.5807 96.0879 59.9316 94.8574 59.9316H93.9072V51.9062Z" fill="#EB1C24"/>
<path d="M105.153 58.8516H106.623V52.9453H105.406V51.9062H109.022V52.9453H107.799V58.8516H109.275V59.9316H105.153V58.8516Z" fill="#EB1C24"/>
<path d="M120.706 53.7246H119.489C119.466 53.4329 119.373 53.2119 119.209 53.0615C119.045 52.9066 118.817 52.8291 118.525 52.8291C118.061 52.8291 117.705 53.0911 117.459 53.6152C117.217 54.1393 117.097 54.8958 117.097 55.8848C117.097 56.9238 117.217 57.7168 117.459 58.2637C117.701 58.806 118.056 59.0771 118.525 59.0771C118.822 59.0771 119.059 58.9951 119.236 58.8311C119.414 58.667 119.507 58.446 119.517 58.168H120.733C120.656 58.7786 120.428 59.2594 120.05 59.6104C119.672 59.9613 119.191 60.1367 118.607 60.1367C117.719 60.1367 117.033 59.7653 116.55 59.0225C116.071 58.2796 115.832 57.2155 115.832 55.8301C115.832 54.5768 116.078 53.5902 116.57 52.8701C117.067 52.1455 117.737 51.7832 118.58 51.7832C119.177 51.7832 119.665 51.9564 120.043 52.3027C120.421 52.6491 120.642 53.123 120.706 53.7246Z" fill="#EB1C24"/>
<path d="M129.184 52.8428L128.261 56.5547H130.113L129.184 52.8428ZM128.418 51.7832H130.052L132.212 60H130.947L130.373 57.6348H127.994L127.406 60H126.271L128.418 51.7832Z" fill="#EB1C24"/>
<path d="M138.003 51.8379H139.165V58.8516H143.28V59.9316H138.003V51.8379Z" fill="#EB1C24"/>
<path d="M74.24 45V31H80.24C80.6267 31 80.96 31.14 81.24 31.42C81.5333 31.7 81.68 32.04 81.68 32.44V36.74C81.68 37.14 81.5333 37.48 81.24 37.76C80.96 38.04 80.6267 38.18 80.24 38.18H76.1V45H74.24ZM76.1 36.32H79.1C79.3 36.32 79.4667 36.2533 79.6 36.12C79.7467 35.9733 79.82 35.8 79.82 35.6V33.56C79.82 33.3733 79.7467 33.2133 79.6 33.08C79.4667 32.9333 79.3 32.86 79.1 32.86H76.1V36.32ZM83.7219 45V30.42L85.6019 30V35H87.9019C88.3019 35 88.6419 35.1467 88.9219 35.44C89.2019 35.72 89.3419 36.06 89.3419 36.46V45H87.4619V37.6C87.4619 37.4 87.3885 37.2333 87.2419 37.1C87.1085 36.9533 86.9419 36.88 86.7419 36.88H85.6019V45H83.7219ZM91.803 45C91.403 45 91.0563 44.86 90.763 44.58C90.483 44.3 90.343 43.9533 90.343 43.54V40.52C90.343 40.12 90.483 39.78 90.763 39.5C91.0563 39.2067 91.403 39.06 91.803 39.06H93.363C93.5763 39.06 93.7496 38.9933 93.883 38.86C94.0296 38.7133 94.103 38.54 94.103 38.34V37.6C94.103 37.4 94.0296 37.2333 93.883 37.1C93.7496 36.9533 93.5763 36.88 93.363 36.88H91.203L91.623 35H94.523C94.923 35 95.263 35.1467 95.543 35.44C95.8363 35.72 95.983 36.06 95.983 36.46V45H91.803ZM92.943 43.12H94.103V40.94H92.943C92.743 40.94 92.5696 41.0133 92.423 41.16C92.2896 41.2933 92.223 41.46 92.223 41.66V42.4C92.223 42.6 92.2896 42.7733 92.423 42.92C92.5696 43.0533 92.743 43.12 92.943 43.12ZM97.1984 45V35H101.378C101.778 35 102.118 35.1467 102.398 35.44C102.692 35.72 102.838 36.06 102.838 36.46V38.64L100.958 38.22V37.62C100.958 37.42 100.885 37.2467 100.738 37.1C100.605 36.9533 100.438 36.88 100.238 36.88H99.0784V45H97.1984ZM103.793 45V35H111.733C112.133 35 112.473 35.1467 112.753 35.44C113.033 35.72 113.173 36.06 113.173 36.46V45H111.313V37.6C111.313 37.4 111.24 37.2333 111.093 37.1C110.946 36.9533 110.773 36.88 110.573 36.88H109.433V45H107.553V37.6C107.553 37.4 107.48 37.2333 107.333 37.1C107.186 36.9533 107.013 36.88 106.813 36.88H105.673V45H103.793ZM115.709 45C115.309 45 114.963 44.86 114.669 44.58C114.389 44.3 114.249 43.9533 114.249 43.54V40.52C114.249 40.12 114.389 39.78 114.669 39.5C114.963 39.2067 115.309 39.06 115.709 39.06H117.269C117.483 39.06 117.656 38.9933 117.789 38.86C117.936 38.7133 118.009 38.54 118.009 38.34V37.6C118.009 37.4 117.936 37.2333 117.789 37.1C117.656 36.9533 117.483 36.88 117.269 36.88H115.109L115.529 35H118.429C118.829 35 119.169 35.1467 119.449 35.44C119.743 35.72 119.889 36.06 119.889 36.46V45H115.709ZM116.849 43.12H118.009V40.94H116.849C116.649 40.94 116.476 41.0133 116.329 41.16C116.196 41.2933 116.129 41.46 116.129 41.66V42.4C116.129 42.6 116.196 42.7733 116.329 42.92C116.476 43.0533 116.649 43.12 116.849 43.12ZM121.935 45V31H123.795V36.32H127.515V31H129.355V45H127.515V38.18H123.795V45H121.935ZM132.858 45C132.444 45 132.098 44.86 131.818 44.58C131.538 44.3 131.398 43.9533 131.398 43.54V35H133.278V42.4C133.278 42.5867 133.351 42.7533 133.498 42.9C133.644 43.0467 133.811 43.12 133.998 43.12H135.158V35H137.038V45H132.858ZM138.253 45V30.42L140.133 30V35H142.433C142.833 35 143.173 35.14 143.453 35.42C143.746 35.7 143.893 36.0467 143.893 36.46V43.54C143.893 43.94 143.746 44.2867 143.453 44.58C143.173 44.86 142.833 45 142.433 45H138.253ZM140.133 43.12H141.273C141.473 43.12 141.646 43.0533 141.793 42.92C141.94 42.7733 142.013 42.6 142.013 42.4V37.6C142.013 37.4 141.94 37.2333 141.793 37.1C141.646 36.9533 141.473 36.88 141.273 36.88H140.133V43.12Z" fill="#0E306A"/>
<path d="M48.5 63.4783C50.7981 63.4783 53.0738 63.0453 55.197 62.2041C57.3202 61.3629 59.2493 60.1299 60.8744 58.5755C62.4994 57.0211 63.7884 55.1758 64.6679 53.1449C65.5473 51.114 66 48.9373 66 46.7391C66 44.5409 65.5473 42.3642 64.6679 40.3333C63.7884 38.3025 62.4994 36.4571 60.8744 34.9028C59.2493 33.3484 57.3202 32.1154 55.197 31.2742C53.0738 30.433 50.7981 30 48.5 30V34.1848C50.2236 34.1848 51.9303 34.5095 53.5227 35.1404C55.1151 35.7713 56.562 36.6961 57.7808 37.8619C58.9995 39.0276 59.9663 40.4116 60.6259 41.9348C61.2855 43.458 61.625 45.0905 61.625 46.7391C61.625 48.3878 61.2855 50.0203 60.6259 51.5435C59.9663 53.0666 58.9995 54.4506 57.7808 55.6164C56.562 56.7822 55.1151 57.7069 53.5227 58.3378C51.9303 58.9688 50.2236 59.2935 48.5 59.2935V63.4783Z" fill="#0E306A"/>
<path d="M65.7696 49.4463C66.1413 47.2771 66.0626 45.059 65.5381 42.9188C65.0136 40.7786 64.0536 38.7582 62.7128 36.9729C61.3719 35.1876 59.6766 33.6724 57.7236 32.5138C55.7706 31.3552 53.5981 30.5759 51.3303 30.2204C49.0624 29.8649 46.7435 29.9401 44.506 30.4418C42.2685 30.9435 40.1563 31.8618 38.2898 33.1443C36.4234 34.4268 34.8393 36.0484 33.6281 37.9165C32.4168 39.7846 31.6021 41.8626 31.2304 44.0319L35.5478 44.7087C35.8265 43.0818 36.4376 41.5233 37.346 40.1222C38.2545 38.7211 39.4425 37.5049 40.8424 36.543C42.2422 35.5811 43.8264 34.8924 45.5045 34.5161C47.1826 34.1398 48.9218 34.0834 50.6227 34.3501C52.3236 34.6167 53.953 35.2012 55.4177 36.0701C56.8825 36.9391 58.154 38.0755 59.1596 39.4145C60.1652 40.7534 60.8852 42.2687 61.2786 43.8739C61.672 45.479 61.731 47.1426 61.4522 48.7695L65.7696 49.4463Z" fill="#0E306A"/>
<path d="M31 43.3333L35.6667 43.3333L35.2725 60.0472C35.2469 61.1331 34.3593 62 33.2731 62H33C31.8954 62 31 61.1046 31 60V43.3333Z" fill="#0E306A"/>
<path d="M46.2174 52.8261H49.2609V63.4783H48.2174C47.1128 63.4783 46.2174 62.5829 46.2174 61.4783V52.8261Z" fill="#0E306A"/>
<path d="M46.2173 41.6522C46.2173 41.0999 46.6651 40.6522 47.2173 40.6522H50.2173C50.7696 40.6522 51.2173 41.0999 51.2173 41.6522V51.3043H46.2173V41.6522Z" fill="#ED1B23"/>
<path d="M57.3913 46.5942C57.9436 46.5942 58.3913 47.0419 58.3913 47.5942V50.5942C58.3913 51.1465 57.9436 51.5942 57.3913 51.5942H46.7246V46.5942H57.3913Z" fill="#ED1B23"/>
<path d="M44.6957 46.5942V51.5942H39.6087C39.0564 51.5942 38.6087 51.1465 38.6087 50.5942V47.5942C38.6087 47.0419 39.0564 46.5942 39.6087 46.5942H44.6957Z" fill="#0E306A"/>
</svg>
